name analog
datacolumns 19
datarows 18
range 0.0 0.0085
endheader
time	ground_force_vx	ground_force_vy	ground_force_vz	ground_force_px	ground_force_py	ground_force_pz	l_ground_force_vx	l_ground_force_vy	l_ground_force_vz	l_ground_force_px	l_ground_force_py	l_ground_force_pz	ground_torque_x	ground_torque_y	ground_torque_z	l_ground_torque_x	l_ground_torque_y	l_ground_torque_z
0.0	-0.0	-0.0	-0.0	-10.419384956359863	37.95132446289063	-443.45751953125	10.16395378112793	-38.11735153198242	-551.2435913085938	-0.0	-0.0	-0.0	-0.0	-0.0	-0.0	155939.125	-16261.9873046875	1753.4012451171875
0.0005	-0.0	-0.0	-0.0	-10.741849899291992	37.56045913696289	-443.3042907714844	10.058366775512695	-38.22991561889648	-551.7406616210938	-0.0	-0.0	-0.0	-0.0	-0.0	-0.0	155940.21875	-16419.826171875	1818.3349609375
0.001	-0.0	-0.0	-0.0	-10.723628044128418	38.21859359741211	-444.653564453125	10.147222518920898	-38.066650390625	-551.739501953125	-0.0	-0.0	-0.0	-0.0	-0.0	-0.0	156027.78125	-16249.2998046875	1777.39013671875
0.0015	-0.0	-0.0	-0.0	-10.95446491241455	37.71764755249024	-442.47308349609375	9.969921112060549	-37.99540710449219	-551.0963134765625	-0.0	-0.0	-0.0	-0.0	-0.0	-0.0	155967.84375	-16411.359375	1664.363037109375
0.002	-0.0	-0.0	-0.0	-10.708440780639648	37.861961364746094	-444.50726318359375	10.256037712097168	-37.97832489013672	-550.4661254882812	-0.0	-0.0	-0.0	-0.0	-0.0	-0.0	155781.375	-16455.626953125	1831.064208984375
0.0025	-0.0	-0.0	-0.0	-11.025001525878906	37.72069549560547	-442.6219177246094	10.23861312866211	-37.89000701904297	-551.3875122070312	-0.0	-0.0	-0.0	-0.0	-0.0	-0.0	155924.03125	-16465.935546875	1688.5079345703125
0.003	-0.0	-0.0	-0.0	-10.972892761230469	37.73935317993164	-441.5638427734375	10.238433837890623	-38.24329376220703	-551.166015625	-0.0	-0.0	-0.0	-0.0	-0.0	-0.0	155850.125	-16560.962890625	1789.68017578125
0.0035	-0.0	-0.0	-0.0	-11.221863746643066	37.74353790283203	-442.1398010253906	9.916451454162598	-37.462188720703125	-550.8173828125	-0.0	-0.0	-0.0	-0.0	-0.0	-0.0	155768.015625	-16658.482421875	1736.08642578125
0.004	-0.0	-0.0	-0.0	-10.667794227600098	37.73959732055664	-442.9441833496094	10.149356842041016	-38.1375846862793	-551.030029296875	-0.0	-0.0	-0.0	-0.0	-0.0	-0.0	155898.609375	-16727.587890625	1920.3250732421875
0.0045000000000000005	-0.0	-0.0	-0.0	-11.062103271484377	38.12434768676758	-442.757568359375	10.378003120422363	-38.11894989013672	-550.7545166015625	-0.0	-0.0	-0.0	-0.0	-0.0	-0.0	155922.515625	-16493.744140625	1795.1070556640625
0.005	-0.0	-0.0	-0.0	-10.564552307128906	37.9644889831543	-442.2013854980469	10.290451049804688	-37.730072021484375	-551.0336303710938	-0.0	-0.0	-0.0	-0.0	-0.0	-0.0	155677.265625	-16672.462890625	1718.2493896484375
0.0055	-0.0	-0.0	-0.0	-10.634966850280762	37.61302947998047	-442.10638427734375	9.757688522338867	-37.42984008789063	-549.6341552734375	-0.0	-0.0	-0.0	-0.0	-0.0	-0.0	156069.765625	-16772.501953125	1908.06298828125
0.006	-0.0	-0.0	-0.0	-10.616050720214844	37.9260368347168	-442.6623840332031	10.0953369140625	-37.94285202026367	-550.0531005859375	-0.0	-0.0	-0.0	-0.0	-0.0	-0.0	155886.796875	-16881.833984375	1902.0399169921875
0.006500000000000001	-0.0	-0.0	-0.0	-10.781418800354004	37.77825164794922	-443.84808349609375	10.538702964782717	-38.0489616394043	-551.0311889648438	-0.0	-0.0	-0.0	-0.0	-0.0	-0.0	155959.34375	-16938.349609375	1884.4866943359373
0.007	-0.0	-0.0	-0.0	-10.074262619018556	37.93767166137695	-441.046142578125	10.379161834716797	-37.94324493408203	-551.4490966796875	-0.0	-0.0	-0.0	-0.0	-0.0	-0.0	155782.140625	-16865.708984375	1837.052978515625
0.0075	-0.0	-0.0	-0.0	-10.278358459472656	38.02042007446289	-442.38287353515625	10.733343124389648	-37.59010696411133	-549.9841918945312	-0.0	-0.0	-0.0	-0.0	-0.0	-0.0	156170.453125	-16718.8984375	1926.02685546875
0.008	-0.0	-0.0	-0.0	-10.488395690917969	37.8297004699707	-441.0729675292969	10.698110580444336	-38.03091430664063	-552.0753784179688	-0.0	-0.0	-0.0	-0.0	-0.0	-0.0	156248.78125	-16998.974609375	1843.1204833984373
0.0085	-0.0	-0.0	-0.0	-10.558232307434082	37.70930862426758	-443.2124938964844	10.254456520080566	-38.27912902832031	-551.1029663085938	-0.0	-0.0	-0.0	-0.0	-0.0	-0.0	156025.265625	-17093.693359375	1949.378662109375
